<?xml version="1.0" encoding="UTF-8"?>
<svg width="500" height="500" viewBox="0 0 499.99999 500.00001" xmlns="http://www.w3.org/2000/svg">
 <g transform="translate(22.606 22.606)" fill-rule="evenodd">
  <path d="m227.39-19.217h-227.09c-10.781 0-19.521 8.7401-19.521 19.521v454.18c0 10.78 8.7401 19.521 19.521 19.521h454.18c10.781 0 19.521-8.7411 19.521-19.521v-454.18c0-10.781-8.7401-19.521-19.521-19.521h-227.09z" fill="#fff" stroke="#000" stroke-width="6.7782"/>
  <g transform="matrix(1.0845 0 0 1.0845 -14.335 -39.24)">
   <path d="m233.19 131.28c64.703 0 117.22 52.513 117.22 117.22s-52.514 117.22-117.22 117.22-117.22-52.513-117.22-117.22 52.512-117.22 117.22-117.22"/>
   <path d="m233.07 142.94c58.264 0 105.55 47.288 105.55 105.55s-47.289 105.55-105.55 105.55c-58.265 0-105.55-47.287-105.55-105.55s47.288-105.55 105.55-105.55" fill="#fff"/>
   <path d="m233.19 153.06c52.682 0 95.438 42.755 95.438 95.436s-42.756 95.436-95.438 95.436-95.436-42.755-95.436-95.436 42.756-95.436 95.436-95.436"/>
   <path d="m233.19 159.83c48.945 0 88.668 39.723 88.668 88.668 0 48.944-39.723 88.668-88.668 88.668-48.944 0-88.667-39.724-88.667-88.668 0-48.945 39.724-88.668 88.667-88.668" fill="#fff"/>
   <path d="m109.654,204.021c0,7.74-7.092,16.092-16.271,16.092v131.076c0,18.612-25.345,18.612-25.345,0v-131.076c-8.928,0-16.704-6.912-16.704-17.208v-72.144c0-6.264 9.072-6.516 9.072.252v53.316h7.596v-53.82c0-5.76 8.713-6.12 8.713.252v53.568h7.883v-53.748c0-6.012 8.461-6.264 8.461.252v53.496h7.74v-53.748c0-5.94 8.855-6.192 8.855.252v73.188z"/>
   <path d="m394.45 147.54v203.58c0 18.18-25.379 17.928-25.379 0v-80.784h-13.537v-122.8c0-28.584 38.916-28.584 38.916 0z"/>
   <path d="m80.853 201.54h-1.529c-3.37 0-6.102 2.732-6.102 6.102v145.4c0 3.37 2.731 6.102 6.102 6.102h3.061c3.369 0 6.102-2.731 6.102-6.102v-145.4c0-3.37-2.732-6.102-6.102-6.102h-1.532z" fill="#fff"/>
   <path d="m382.14 243.8h-1.531c-3.369 0-6.102 1.998-6.102 4.464v106.42c0 2.466 2.732 4.464 6.102 4.464h3.061c3.371 0 6.102-1.998 6.102-4.464v-106.42c0-2.466-2.73-4.464-6.102-4.464h-1.53z" fill="#fff"/>
  </g>
 </g>
</svg>
